<?xml version="1.0" encoding="UTF-8" standalone="no"?>
<!-- Created with Inkscape (http://www.inkscape.org/) -->

<svg
   xmlns:dc="http://purl.org/dc/elements/1.1/"
   xmlns:cc="http://creativecommons.org/ns#"
   xmlns:rdf="http://www.w3.org/1999/02/22-rdf-syntax-ns#"
   xmlns:svg="http://www.w3.org/2000/svg"
   xmlns="http://www.w3.org/2000/svg"
   xmlns:sodipodi="http://sodipodi.sourceforge.net/DTD/sodipodi-0.dtd"
   xmlns:inkscape="http://www.inkscape.org/namespaces/inkscape"
   width="45mm"
   height="65mm"
   viewBox="0 0 45 65"
   version="1.1"
   id="svg901"
   inkscape:version="0.92.4 (f8dce91, 2019-08-02)"
   sodipodi:docname="runner.svg">
  <defs
     id="defs895" />
  <sodipodi:namedview
     id="base"
     pagecolor="#ffffff"
     bordercolor="#666666"
     borderopacity="1.0"
     inkscape:pageopacity="0.0"
     inkscape:pageshadow="2"
     inkscape:zoom="1.6608723"
     inkscape:cx="188.45597"
     inkscape:cy="123.53701"
     inkscape:document-units="mm"
     inkscape:current-layer="layer1"
     showgrid="false"
     fit-margin-top="0"
     fit-margin-left="0"
     fit-margin-right="0"
     fit-margin-bottom="0"
     inkscape:pagecheckerboard="true"
     inkscape:window-width="1920"
     inkscape:window-height="1052"
     inkscape:window-x="0"
     inkscape:window-y="0"
     inkscape:window-maximized="1" />
  <metadata
     id="metadata898">
    <rdf:RDF>
      <cc:Work
         rdf:about="">
        <dc:format>image/svg+xml</dc:format>
        <dc:type
           rdf:resource="http://purl.org/dc/dcmitype/StillImage" />
        <dc:title></dc:title>
      </cc:Work>
    </rdf:RDF>
  </metadata>
  <g
     inkscape:label="Layer 1"
     inkscape:groupmode="layer"
     id="layer1"
     transform="translate(-36.857689,-99.864134)">
    <polygon
       style="fill:#427c5b;fill-opacity:1"
       id="polygon2911"
       points="173.72,124.62 176.22,133.37 150.47,148.12 130.97,129.62 133.97,112.87 152.22,135.62 "
       transform="matrix(-0.26458333,0,0,0.26458333,87.517449,99.480296)" />
    <path
       style="fill:#fdd99b;stroke-width:0.26458332"
       inkscape:connector-curvature="0"
       id="path2921"
       d="m 42.414987,132.71675 c 0,0 -2.778125,-4.56433 -3.505729,-2.44739 -0.727604,2.11693 -2.050521,0.13229 -1.322917,1.52135 0,0 -3.042708,1.05833 3.307292,2.97656 z" />
    <polygon
       style="fill:#333333"
       id="polygon2923"
       points="63.633,179.12 31.966,201.12 50.299,218.12 37.966,247.12 67.966,217.12 54.299,201.79 79.299,182.79 "
       transform="matrix(-0.26458333,0,0,0.26458333,87.517449,99.480296)" />
    <polygon
       id="polygon2925"
       points="96.633,181.12 127.3,212.79 149.97,196.46 174.63,204.12 155.63,176.79 129.3,195.79 110.3,178.46 "
       transform="matrix(-0.26458333,0,0,0.26458333,87.517449,99.480296)" />
    <polygon
       style="fill:#28bb76;fill-opacity:1"
       id="polygon2927"
       points="138.3,106.46 71.299,101.46 59.633,183.46 124.97,185.12 "
       transform="matrix(-0.26458333,0,0,0.26458333,87.517449,99.480296)" />
    <polygon
       style="fill:#427c5b;fill-opacity:1"
       id="polygon2929"
       points="96.966,102.79 80.299,124.12 74.299,101.79 "
       transform="matrix(-0.26458333,0,0,0.26458333,87.517449,99.480296)" />
    <polygon
       style="fill:#427c5b;fill-opacity:1"
       id="polygon2931"
       points="57.299,170.79 52.633,158.12 103.63,145.79 96.633,125.46 107.3,119.12 116.97,152.46 "
       transform="matrix(-0.26458333,0,0,0.26458333,87.517449,99.480296)" />
    <polygon
       style="fill:#fdd99b"
       id="polygon2933"
       points="72.299,71.455 70.633,103.79 137.63,109.46 147.3,45.122 82.299,32.788 54.633,62.455 "
       transform="matrix(-0.26458333,0,0,0.26458333,87.517449,99.480296)" />
    <path
       style="fill:#fdd99b;stroke-width:0.26458332"
       inkscape:connector-curvature="0"
       id="path2935"
       d="m 72.643632,140.98498 4.233334,1.38906 c 0,0 2.248958,1.5875 -1.058334,1.12448 -3.307291,-0.46302 2.579688,2.4474 0.132292,1.52136 0,0 0.661458,3.24114 -4.101042,-0.92605 z" />
    <path
       inkscape:connector-curvature="0"
       id="path2937"
       d="m 58.488424,119.48838 -2.778125,0.99219 -4.034896,-8.06953 -2.910416,0.66146 -3.571875,-3.37344 c 0,0 5.820833,-2.71198 9.855729,-2.84427 4.034896,-0.13229 3.373437,-0.79375 5.55625,-3.63802 0,0 3.307291,-3.969016 6.81302,0.39687 l 1.12448,1.25677 -3.307292,0.92605 2.050521,3.70416 -11.972396,2.18281 z"
       style="stroke-width:0.26458332" />
    <g
       id="g2941"
       transform="matrix(-0.26458333,0,0,0.26458333,87.517449,99.480296)">
	<polygon
   id="polygon2943"
   points="72.221,88.652 95.971,82.652 96.461,84.592 72.711,90.592 " />

</g>
    <ellipse
       id="ellipse2949"
       rx="1.8520833"
       ry="1.7197917"
       cy="113.80007"
       cx="-63.383213"
       style="stroke-width:0.26458332"
       transform="scale(-1,1)" />
  </g>
</svg>
