<?xml version="1.0" encoding="UTF-8" standalone="no"?>
<!-- Created with Inkscape (http://www.inkscape.org/) -->

<svg
   xmlns:dc="http://purl.org/dc/elements/1.1/"
   xmlns:cc="http://creativecommons.org/ns#"
   xmlns:rdf="http://www.w3.org/1999/02/22-rdf-syntax-ns#"
   xmlns:svg="http://www.w3.org/2000/svg"
   xmlns="http://www.w3.org/2000/svg"
   xmlns:sodipodi="http://sodipodi.sourceforge.net/DTD/sodipodi-0.dtd"
   xmlns:inkscape="http://www.inkscape.org/namespaces/inkscape"
   width="40mm"
   height="30mm"
   viewBox="0 0 40 30"
   version="1.1"
   id="svg1083"
   inkscape:version="0.92.4 (f8dce91, 2019-08-02)"
   sodipodi:docname="stone.svg">
  <defs
     id="defs1077" />
  <sodipodi:namedview
     id="base"
     pagecolor="#ffffff"
     bordercolor="#666666"
     borderopacity="1.0"
     inkscape:pageopacity="0.0"
     inkscape:pageshadow="2"
     inkscape:zoom="1.1744141"
     inkscape:cx="32.024643"
     inkscape:cy="-38.509066"
     inkscape:document-units="mm"
     inkscape:current-layer="layer1"
     showgrid="false"
     fit-margin-top="0"
     fit-margin-left="0"
     fit-margin-right="0"
     fit-margin-bottom="0"
     inkscape:pagecheckerboard="true"
     inkscape:window-width="1920"
     inkscape:window-height="1052"
     inkscape:window-x="0"
     inkscape:window-y="0"
     inkscape:window-maximized="1" />
  <metadata
     id="metadata1080">
    <rdf:RDF>
      <cc:Work
         rdf:about="">
        <dc:format>image/svg+xml</dc:format>
        <dc:type
           rdf:resource="http://purl.org/dc/dcmitype/StillImage" />
        <dc:title></dc:title>
      </cc:Work>
    </rdf:RDF>
  </metadata>
  <g
     inkscape:label="Layer 1"
     inkscape:groupmode="layer"
     id="layer1"
     transform="translate(-52.640151,-108.64447)">
    <g
       transform="matrix(0.33072917,0,0,-0.33072917,52.640151,138.64444)"
       id="g10">
    <g
   id="g12">
      <path
   inkscape:connector-curvature="0"
   d="m 99.359,49.531 c 1.149,0.215 1.786,0.359 1.918,0.441 0.137,0.055 0.442,0.371 0.922,0.961 l 7.36,-0.121 c -0.239,-0.215 -1.215,-0.492 -2.918,-0.84 -1.84,-0.375 -3.215,-0.519 -4.121,-0.441 l -0.161,1.039 c -0.214,-0.238 -0.734,-0.586 -1.558,-1.039 z m -7.398,2.602 c -0.348,0.773 -0.867,1.453 -1.563,2.039 -0.878,0.613 -1.558,1.093 -2.039,1.441 -0.906,0.664 -1.531,1.172 -1.879,1.52 0.586,-0.028 1.211,0 1.879,0.078 0.801,-0.078 1.934,-0.746 3.403,-2 1.383,-1.227 2.293,-2.278 2.718,-3.161 C 94.293,51.867 94.172,51.73 94.121,51.652 94.039,51.547 94,51.332 94,51.011 c 0,-0.398 0.16,-0.757 0.48,-1.078 -0.48,0.239 -1.148,0.586 -2,1.039 -0.187,0.106 -0.359,0.493 -0.519,1.161 z m -73.082,12.878 -3.957,3.2 c -0.137,0.375 -0.43,0.855 -0.883,1.441 -0.559,0.691 -0.879,1.121 -0.961,1.281 l -0.719,0.84 c 0,0.238 -0.121,0.438 -0.359,0.598 -0.238,0.187 -0.535,0.281 -0.879,0.281 0.184,0.852 0.785,2.359 1.801,4.52 0.797,1.761 1.144,3.121 1.039,4.082 l 2.68,2.437 -0.563,-1.238 c -0.371,-1.789 -1.199,-5.082 -2.476,-9.883 0,-1.227 0.398,-2.25 1.199,-3.078 2.211,-2.32 3.586,-3.828 4.121,-4.52 z m 8.16,-12.078 h -0.277 l -1.364,0.84 c -0.023,0.027 -0.691,0.652 -2,1.879 -0.824,0.746 -1.343,1.574 -1.558,2.481 -0.426,0.48 -0.774,1.304 -1.039,2.48 -0.828,1.25 -1.094,1.879 -0.801,1.879 l 1.559,-0.16 v -0.039 c 0.027,-2.348 1.043,-4.36 3.043,-6.039 1.757,-1.469 3.851,-2.297 6.277,-2.481 0.32,-0.027 0.656,-0.043 1,-0.043 -0.184,-0.183 -0.707,-0.332 -1.559,-0.437 -0.132,-0.028 -0.254,-0.055 -0.359,-0.082 -1.414,-0.184 -2.387,-0.278 -2.922,-0.278 z m 32.922,-10 c -0.43,-0.32 -1,-0.48 -1.723,-0.48 -1.093,-0.11 -2.144,-0.281 -3.16,-0.52 -0.879,-0.187 -1.945,-0.32 -3.199,-0.402 -0.957,0 -2.32,0.242 -4.078,0.723 -1.735,0.343 -4.016,0.543 -6.84,0.597 H 39.68 c -2.055,0.934 -3.282,1.535 -3.68,1.801 -0.961,0.613 -2.398,1.84 -4.32,3.68 l -0.078,0.121 -0.082,0.277 c 2.16,-0.586 4.093,-1.41 5.8,-2.476 1.492,-0.911 2.547,-1.403 3.16,-1.481 1.758,-0.215 6.852,-0.375 15.282,-0.48 l 3.636,0.039 c 0,0.558 -0.011,0.922 -0.039,1.078 -0.054,0.082 -0.226,0.453 -0.519,1.121 -0.293,0.668 -0.465,1.105 -0.52,1.32 l 0.36,-0.758 c 0.265,-0.535 0.492,-1.093 0.679,-1.683 0.586,-1.09 0.789,-1.918 0.602,-2.477 z m 5.918,1.559 c -2.691,1.441 -4.332,2.707 -4.918,3.801 l 0.559,0.558 c 0.054,0 0.718,-0.293 2,-0.879 1.335,-0.586 2.386,-0.972 3.16,-1.16 1.414,-0.32 3.265,-0.48 5.558,-0.48 0.989,0 3.137,0.574 6.442,1.718 3.015,1.067 4.855,1.801 5.519,2.204 C 83.535,48.84 82.746,47.906 81.84,47.453 80.398,47 79,46.476 77.641,45.89 c -0.536,-0.16 -1.321,-0.304 -2.36,-0.437 -1.043,-0.133 -1.922,-0.215 -2.64,-0.242 -0.961,0.027 -1.868,0.043 -2.719,0.043 -1.629,0.023 -2.977,-0.227 -4.043,-0.762 z"
   style="fill:#d2c8ba;fill-rule:evenodd"
   id="path14" />

      <path
   inkscape:connector-curvature="0"
   d="m 58.16,71.57 -0.64,-0.719 c 0.187,-0.105 0.281,-0.187 0.281,-0.238 l 2.16,-0.203 c 0.48,0 0.785,0.109 0.918,0.32 0.109,0.16 0.254,0.442 0.441,0.84 -0.398,0.535 -0.855,0.977 -1.359,1.32 v 1.68 c -4.535,-0.238 -7.574,-0.68 -9.121,-1.316 -0.906,-0.375 -1.36,-0.911 -1.36,-1.602 0,-0.32 0.067,-0.519 0.2,-0.602 0.132,-0.05 0.199,-0.093 0.199,-0.117 L 52,70.73 c 0.078,0 2.133,0.281 6.16,0.84 z m 38.52,-22.16 2.679,0.121 h 1.442 l -0.281,-0.16 z m -2.2,2.64 c -0.425,0.883 -1.332,1.934 -2.718,3.161 -1.469,1.254 -2.602,1.922 -3.403,2 l 0.364,0.082 c 0.797,-0.16 1.515,0.011 2.156,0.519 0.613,0.481 0.976,1.094 1.082,1.84 l -1.602,0.398 c -0.636,0.961 -1.57,1.801 -2.797,2.52 -1.574,0.906 -3.308,1.363 -5.203,1.363 -0.746,0 -1.332,-0.308 -1.757,-0.922 -0.293,-0.398 -0.442,-0.734 -0.442,-1 0,-0.851 0.508,-1.668 1.52,-2.441 0.132,-0.105 1.16,-0.746 3.082,-1.918 0.398,-2.453 0.277,-4.812 -0.36,-7.082 -0.48,-1.652 -1.093,-2.957 -1.84,-3.918 -1.55,-0.426 -3.187,-0.68 -4.921,-0.762 1.359,0.586 2.761,1.11 4.199,1.563 0.906,0.453 1.695,1.387 2.359,2.801 -0.664,-0.403 -2.504,-1.137 -5.519,-2.204 -3.305,-1.144 -5.453,-1.718 -6.438,-1.718 -2.293,0 -4.148,0.16 -5.562,0.48 -0.774,0.188 -1.825,0.574 -3.157,1.16 -1.281,0.586 -1.949,0.879 -2,0.879 0,0.668 -0.242,1.242 -0.722,1.719 -0.481,0.48 -1.055,0.723 -1.719,0.723 0.051,0.183 -0.187,0.226 -0.719,0.117 -0.535,-0.106 -0.801,-0.277 -0.801,-0.52 0.079,-0.16 0.2,-0.277 0.36,-0.359 l 0.441,0.121 -0.64,-0.559 c -0.028,0 -0.043,-0.015 -0.043,-0.043 -0.211,-0.183 -0.383,-0.093 -0.52,0.282 l 0.199,-0.602 -0.597,-0.758 c 0.293,-0.375 0.547,-0.629 0.758,-0.761 0.32,-0.211 0.734,-0.332 1.242,-0.36 0.558,-0.398 1.586,-1.867 3.078,-4.398 l -1.879,-0.52 c 0.187,0.559 -0.016,1.387 -0.602,2.477 -0.183,0.59 -0.414,1.148 -0.679,1.683 l -0.36,0.758 c 0.055,-0.215 0.227,-0.652 0.52,-1.32 0.293,-0.668 0.469,-1.039 0.519,-1.121 0.028,-0.156 0.043,-0.52 0.043,-1.078 l -3.64,-0.039 c -8.43,0.105 -13.52,0.265 -15.282,0.48 -0.613,0.078 -1.668,0.57 -3.16,1.481 -1.707,1.066 -3.64,1.89 -5.8,2.476 l -0.719,0.723 c 0.426,0.32 1.121,1.078 2.078,2.277 0.988,1.227 1.508,2.016 1.562,2.363 h -0.359 l -0.082,0.36 1.199,0.64 -0.039,-0.48 c 1.281,-0.027 2.094,0.023 2.442,0.16 0.613,0.266 0.867,0.918 0.757,1.957 l -0.437,-0.039 c -0.242,-0.027 -0.723,-0.254 -1.442,-0.68 -0.668,-0.375 -1.093,-0.64 -1.281,-0.8 l -2,-0.801 -1.637,-0.637 0.317,-0.043 c -0.344,0 -0.68,0.016 -1,0.043 -2.426,0.184 -4.52,1.012 -6.277,2.481 -2,1.679 -3.016,3.691 -3.04,6.039 v 0.039 L 20,62.492 c -0.504,0.719 -0.879,1.558 -1.121,2.519 l 0.043,-0.039 c -0.535,0.692 -1.906,2.2 -4.121,4.52 -0.801,0.828 -1.199,1.851 -1.199,3.078 1.277,4.801 2.105,8.094 2.48,9.883 0.238,0.265 0.547,0.664 0.918,1.199 0.242,0.293 0.469,0.508 0.68,0.641 l 0.082,0.078 v 0.039 c 0.027,0 0.05,0.015 0.078,0.043 l 0.121,0.117 c 5.762,1.043 9.238,1.656 10.441,1.84 4.293,0.617 8.493,0.922 12.598,0.922 4.375,0 9.414,-0.348 15.121,-1.039 2.984,-0.375 6.586,-0.84 10.801,-1.403 0.504,-0.183 0.316,-0.304 -0.563,-0.359 -1.226,-0.055 -1.839,-0.52 -1.839,-1.398 0,-0.321 0.093,-0.536 0.281,-0.641 0.078,-0.055 0.16,-0.082 0.238,-0.082 l 1.281,-0.039 c 1.039,0 1.868,0.105 2.481,0.32 0.398,0.133 0.801,0.375 1.199,0.719 l -0.398,0.562 -2.36,0.918 c 2.774,-0.132 6,-1.414 9.68,-3.84 2.293,-1.519 6.867,-4.574 13.719,-9.16 4.535,-2.746 9.254,-6.144 14.16,-10.199 1.332,-0.906 2.879,-2.734 4.64,-5.48 1.895,-2.934 3.149,-4.664 3.758,-5.2 -1.679,-0.64 -2.851,-0.984 -3.519,-1.039 -1.813,-0.105 -4.184,-0.293 -7.118,-0.562 l -0.039,0.121 c 0.907,-0.078 2.278,0.066 4.118,0.441 1.707,0.348 2.679,0.625 2.921,0.84 l -7.363,0.121 0.16,0.438 -5.879,1.883 z m 1.879,-2.64 -2.879,0.082 0.36,-0.719 c -0.453,0.824 -0.813,1.438 -1.082,1.84 l -0.281,0.359 c 0.855,-0.453 1.523,-0.8 2,-1.039 0.136,-0.054 0.253,-0.109 0.363,-0.16 0.535,-0.215 1.039,-0.336 1.519,-0.363 z m -2.64,6.523 v 1.559 h -1.52 v -1.559 z m -5.36,-0.32 c 0.481,-0.348 1.161,-0.828 2.039,-1.441 0.696,-0.586 1.215,-1.266 1.563,-2.039 -0.16,0.32 -0.684,0.878 -1.563,1.679 -0.746,0.692 -1.425,1.293 -2.039,1.801 z m -1.558,0 0.48,-0.281 0.481,-0.36 z m 27.519,-5.641 -0.082,0.121 0.602,-0.683 z M 71.68,73.211 c -0.293,-0.348 -0.575,-0.547 -0.84,-0.598 0.027,-0.242 0.105,-0.48 0.238,-0.723 0.137,-0.211 0.203,-0.347 0.203,-0.398 1.094,0 1.852,0.144 2.281,0.441 -0.91,0.985 -1.535,1.41 -1.882,1.278 z m -2.16,-6.039 v 1.64 h -3.399 c 0.531,0.16 0.879,0.305 1.039,0.442 l -0.801,1.316 c -1.148,-0.238 -1.972,-0.531 -2.48,-0.879 -0.266,-0.187 -0.52,-0.492 -0.758,-0.918 l 1.559,-0.16 c 0.242,0 0.508,0.023 0.8,0.078 v -1.719 h 4.04 v 0.161 l 0.519,-0.282 c 0.375,-0.051 0.801,-0.039 1.281,0.039 0.453,0.055 0.746,0.137 0.879,0.243 v 1.32 l -0.84,-0.242 c -0.507,-0.078 -0.972,-0.278 -1.398,-0.598 z m 3.601,-0.84 c 0.344,-0.028 0.664,-0.028 0.957,0 l -1.316,0.519 c -0.055,-0.16 -0.149,-0.265 -0.282,-0.32 0,-0.078 0.211,-0.145 0.641,-0.199 z m -8.281,-7.52 c 0,0.238 -0.117,0.785 -0.36,1.641 -1.945,-0.668 -3.015,-1.133 -3.199,-1.403 0.106,-0.21 0.094,-0.414 -0.043,-0.597 0.242,-0.11 0.364,-0.199 0.364,-0.281 l 0.757,-0.122 c 0.586,-0.078 1.039,-0.117 1.36,-0.117 0.426,0 0.773,0.133 1.043,0.399 0.078,-0.696 0.316,-1.067 0.718,-1.121 0.184,0.054 0.321,0.254 0.399,0.601 -0.027,0.215 -0.215,0.442 -0.559,0.68 z M 88.52,19.293 c 0.32,-0.055 0.773,-0.082 1.359,-0.082 0.586,0.027 1.066,0.093 1.441,0.199 -0.265,-0.106 -0.695,-0.184 -1.281,-0.238 -0.586,-0.028 -1.094,-0.016 -1.519,0.039 z M 87.48,29.492 87,31.972 c -0.078,1.039 -0.055,1.735 0.078,2.082 l 0.484,0.039 h 0.118 c 0.242,-0.293 0.492,-0.773 0.761,-1.441 0.239,-0.668 0.36,-1.133 0.36,-1.398 0,-0.668 -0.442,-1.254 -1.321,-1.762 z M 72.641,45.211 c -1.227,-0.481 -2.039,-0.774 -2.442,-0.879 -0.508,-0.133 -1.492,-0.199 -2.961,-0.199 -0.664,0 -1.117,0.121 -1.359,0.359 1.066,0.535 2.414,0.785 4.043,0.762 0.851,0 1.758,-0.016 2.719,-0.043 z m 24.918,-19.68 0.082,0.562 -0.039,-0.32 z M 45.762,84.453 c -0.16,0.16 -0.242,0.277 -0.242,0.359 -0.454,0.028 -0.852,0 -1.2,-0.082 -0.558,-0.133 -1.375,-0.426 -2.441,-0.879 l 2.48,-0.238 c 0.403,0 0.696,0.094 0.879,0.277 0.137,0.11 0.309,0.297 0.524,0.563 z M 38.68,80.371 37.359,80.89 c -0.078,0 -0.547,-0.199 -1.398,-0.597 -0.801,-0.348 -1.32,-0.575 -1.563,-0.68 l 1.204,-0.16 c 1.144,0.078 2.171,0.387 3.078,0.918 z M 36,84.652 c -0.398,0.215 -0.785,0.32 -1.16,0.32 -1.145,-0.16 -2.281,-0.425 -3.399,-0.8 -2.214,-0.747 -3.32,-1.641 -3.32,-2.68 0,-1.762 1.652,-2.16 4.957,-1.199 3.281,0.933 4.977,1.933 5.082,3 -1.305,0.824 -2.027,1.277 -2.16,1.359 z M 49.602,61.851 c 0.265,-0.48 0.425,-0.758 0.476,-0.84 0.188,-0.238 0.402,-0.359 0.641,-0.359 0.695,0 1.136,0.16 1.32,0.481 0.188,0.343 -0.625,1.093 -2.437,2.238 l -0.043,0.801 c -0.719,0.187 -1.348,0.281 -1.879,0.281 -0.985,0 -2.012,-0.242 -3.078,-0.723 -1.336,-0.586 -2,-1.332 -2,-2.238 0,-0.426 0.117,-0.856 0.359,-1.281 0.426,-0.746 1.105,-1.118 2.039,-1.118 0.879,0 1.801,0.25 2.762,0.758 1.066,0.586 1.679,1.254 1.84,2 z m -3.043,-9.918 c -1.227,-0.375 -1.84,-0.828 -1.84,-1.363 0,-0.531 0.613,-0.984 1.84,-1.359 1.203,-0.371 2.652,-0.559 4.363,-0.559 1.707,0 3.172,0.188 4.398,0.559 1.2,0.375 1.801,0.828 1.801,1.359 0,0.535 -0.601,0.988 -1.801,1.363 -1.226,0.371 -2.695,0.559 -4.398,0.559 -1.707,0 -3.16,-0.188 -4.363,-0.559 z m -20.481,15.16 c -0.316,-0.214 -0.531,-0.363 -0.637,-0.441 -0.214,-0.187 -0.32,-0.441 -0.32,-0.762 0,-0.531 0.387,-0.613 1.16,-0.238 1.68,0.133 2.918,0.465 3.719,1 0.535,0.398 0.801,0.824 0.801,1.281 0,0.344 -0.039,0.625 -0.121,0.84 -0.106,0.266 -0.2,0.492 -0.282,0.68 H 29.52 c 0,1.039 -0.454,2.094 -1.36,3.16 -1.094,1.305 -2.465,1.957 -4.121,1.957 -1.437,0 -2.48,-0.16 -3.117,-0.477 -0.59,-0.32 -0.883,-0.8 -0.883,-1.441 0,-0.055 0.188,-0.812 0.563,-2.281 0.343,-1.625 0.519,-2.852 0.519,-3.68 2.266,0.027 3.918,0.16 4.957,0.402 z M 9.879,39.05 6.16,47.89 C 6.719,46.879 7.426,45.332 8.281,43.254 9.027,41.437 9.559,40.039 9.879,39.05 Z m 26.199,-29.039 0.32,-0.117 2.442,-0.883 1.719,-0.64 c -2.348,0.773 -4.305,1.48 -5.879,2.121 -1.492,0.586 -2.852,1.238 -4.078,1.961 1.253,-0.641 2.519,-1.242 3.796,-1.801 z m 2.801,1.961 c 0.109,1.735 0.375,3.946 0.801,6.641 0.453,2.508 0.695,3.934 0.718,4.281 0.11,0.399 0.364,1.024 0.762,1.879 0.399,0.852 0.641,1.399 0.719,1.641 0.426,0.613 1.309,1.691 2.641,3.238 1.601,1.895 2.828,3.188 3.679,3.883 l -0.398,-1.043 c -0.266,-0.774 -0.403,-1.32 -0.403,-1.637 0,-0.215 0.082,-2.015 0.243,-5.402 -0.055,-3.281 -0.653,-4.918 -1.801,-4.918 -1.254,0 -2.641,-0.977 -4.16,-2.922 -1.465,-1.891 -2.2,-3.547 -2.2,-4.957 0,-0.32 0.051,-0.496 0.161,-0.523 0.054,0 0.148,0.015 0.281,0.042 0.183,0.024 -0.149,-0.054 -1,-0.242 z M 27.922,46.254 c 0.773,1.757 2,2.492 3.68,2.199 l 0.078,-0.121 c -0.321,-3.813 -0.602,-6.309 -0.84,-7.481 -0.348,-1.519 -0.934,-2.281 -1.762,-2.281 -0.586,0 -1.051,0.309 -1.398,0.922 -0.348,0.613 -0.52,1.48 -0.52,2.598 0,0.293 0.012,0.585 0.039,0.882 0.055,1.094 0.254,2.078 0.602,2.957 0.027,0.11 0.066,0.215 0.121,0.325 z m -0.883,6.679 -0.199,-0.082 -0.078,0.082 z M 15.68,51.73 c -0.719,0.801 -1.078,2.547 -1.078,5.242 0,2.481 1.519,4.305 4.558,5.481 v -6.641 c 0.028,-1.601 -0.027,-2.668 -0.16,-3.199 -0.266,-0.906 -0.855,-1.359 -1.762,-1.359 -0.746,0 -1.265,0.156 -1.558,0.476 z m 17.082,-8.078 c 0.691,0 1.078,-0.121 1.16,-0.359 L 33.801,42.691 C 33.426,42.238 33,42.039 32.52,42.093 Z M 47.68,42.254 c -1.602,0.183 -3.84,0.382 -6.719,0.597 2.824,-0.054 5.105,-0.254 6.84,-0.597 z m 4.359,-0.801 -0.16,0.078 c 1.254,0.082 2.32,0.215 3.199,0.402 1.016,0.239 2.067,0.41 3.16,0.52 -0.211,-0.215 -0.664,-0.535 -1.359,-0.961 -0.641,-0.375 -1.012,-0.559 -1.117,-0.559 -0.375,0 -1.617,0.172 -3.723,0.52 z M 52.762,13.851 C 52.199,13.133 51.359,10.785 50.238,6.812 l -0.597,-0.48 c 0.664,2.398 1.121,3.984 1.359,4.758 0.398,1.175 0.988,2.093 1.762,2.761 z m -1.364,23.403 -0.117,-1.243 c -0.082,-0.425 -0.269,-0.773 -0.562,-1.039 -0.266,-0.16 -0.426,-0.254 -0.481,-0.281 -0.16,0.027 -0.277,0.106 -0.359,0.242 l -0.078,0.2 c 0,0.21 0.265,0.625 0.801,1.238 0.265,0.32 0.531,0.613 0.796,0.883 z"
   style="fill:#b3aa9e;fill-rule:evenodd"
   id="path16" />

      <path
   inkscape:connector-curvature="0"
   d="m 102.56,49.41 c 2.933,0.269 5.308,0.453 7.121,0.562 0.668,0.055 1.84,0.399 3.519,1.039 l 1.039,-0.918 c -1.414,-0.48 -2.664,-0.906 -3.758,-1.281 -2.109,-0.668 -3.839,-1.094 -5.203,-1.281 -1.066,-0.133 -2.613,-0.266 -4.636,-0.398 -1.653,-0.083 -2.789,-0.122 -3.403,-0.122 -2.691,0 -4.414,0.786 -5.16,2.36 -1.172,2.562 -2.613,4.429 -4.316,5.601 l -0.481,0.36 c -0.16,0.187 -0.308,0.426 -0.441,0.718 l -0.039,-0.437 c -0.426,0.293 -0.789,0.574 -1.082,0.84 l -0.199,0.879 0.96,-0.199 c 0.348,-0.348 0.973,-0.856 1.879,-1.52 0.614,-0.508 1.293,-1.109 2.039,-1.801 0.883,-0.801 1.403,-1.359 1.563,-1.679 0.16,-0.668 0.332,-1.055 0.519,-1.161 l 0.282,-0.359 c 0.265,-0.402 0.625,-1.016 1.078,-1.84 l -0.36,0.719 2.879,-0.082 h 0.321 l 3.84,-0.039 c -0.372,-0.211 -0.84,-0.52 -1.399,-0.918 l 0.359,-0.403 c 0.133,-0.078 0.243,-0.144 0.321,-0.199 0.078,-0.051 0.277,-0.078 0.597,-0.078 0.829,0 1.547,0.547 2.161,1.637 z M 16.641,83.691 17.68,84.293 C 17.465,84.16 17.238,83.945 17,83.652 16.625,83.117 16.32,82.718 16.078,82.453 Z m -1.719,-15.48 3.957,-3.2 c 0.242,-0.961 0.613,-1.8 1.121,-2.519 -0.293,0 -0.027,-0.629 0.801,-1.879 0.265,-1.176 0.613,-2 1.039,-2.48 0.215,-0.907 0.734,-1.735 1.558,-2.481 1.309,-1.227 1.977,-1.852 2,-1.879 -0.664,0.293 -1.519,0.985 -2.558,2.078 -1.121,1.176 -1.813,2.149 -2.078,2.922 l -0.282,0.68 c 0,-0.613 0.399,-3.762 1.2,-9.442 0,-1.359 -0.293,-2.332 -0.879,-2.918 -0.348,-0.347 -0.707,-0.523 -1.082,-0.523 -0.746,0 -1.68,0.762 -2.797,2.281 -0.16,0.215 -1.082,1.625 -2.762,4.242 l -0.281,1.04 0.16,-4.2 c 0,-2.109 -0.227,-3.574 -0.68,-4.402 -0.828,-1.52 -1.414,-2.906 -1.757,-4.16 l -0.403,-0.16 c -0.293,0.32 -0.531,0.867 -0.719,1.64 -0.16,0.774 -0.718,1.668 -1.679,2.68 l 2.16,2.641 c -0.453,0.453 -0.734,0.761 -0.84,0.921 -0.375,0.504 -0.562,1.051 -0.562,1.641 0,0.559 0.253,1.664 0.761,3.32 0.907,2.907 1.481,4.825 1.719,5.758 C 11,59.359 10.133,59 9.441,58.734 8.16,58.226 7.305,57.961 6.879,57.933 c -0.984,2.399 0.562,4.227 4.641,5.481 2.082,0.613 4.375,1.051 6.878,1.32 -0.16,0.238 -0.652,0.719 -1.476,1.438 -0.934,0.828 -1.563,1.414 -1.883,1.761 z m 16.68,-19.758 c -1.68,0.293 -2.907,-0.442 -3.68,-2.199 0.211,0.851 0.371,1.453 0.476,1.796 1.149,1.094 2,1.856 2.563,2.282 0.344,0.32 1.387,1.574 3.117,3.761 h 0.363 C 34.387,53.746 33.867,52.957 32.879,51.73 31.922,50.531 31.227,49.773 30.801,49.453 L 31.52,48.73 Z M 41.879,26.41 c 0.562,4.137 2.586,7.148 6.082,9.043 2.078,1.144 3.211,1.785 3.398,1.918 1.016,0.801 1.52,1.816 1.52,3.039 0,0.348 -0.078,0.574 -0.238,0.683 -0.215,0.106 -0.414,0.227 -0.602,0.36 2.106,-0.348 3.348,-0.52 3.723,-0.52 0.105,0 0.476,0.184 1.117,0.559 0.695,0.426 1.148,0.746 1.359,0.961 0.723,0 1.297,0.156 1.723,0.48 l 1.879,0.52 0.082,-0.602 C 61.547,42 60.707,41.425 59.398,41.133 c -1.304,-0.11 -2.011,-0.176 -2.117,-0.2 0.133,-0.242 1.172,-1.082 3.117,-2.523 1.868,-1.758 2.801,-3.68 2.801,-5.758 0,-0.801 -0.652,-1.531 -1.961,-2.199 -1.57,-0.828 -2.613,-1.746 -3.117,-2.762 -0.266,-0.504 -0.496,-2.281 -0.68,-5.32 -0.214,-2.985 -0.429,-4.664 -0.64,-5.039 -0.426,-0.746 -1.496,-1.067 -3.199,-0.961 L 50.68,16.492 C 49.988,15.746 49.52,14.066 49.281,11.453 49.145,10.039 48.973,8 48.762,5.332 l -0.282,-0.52 -3.281,1.68 -0.078,0.082 -0.519,0.398 c -1.094,0.696 -2.176,1.508 -3.243,2.442 -1.121,0.984 -1.933,1.828 -2.437,2.519 0.851,0.188 1.183,0.266 1,0.239 -0.137,-0.024 -0.227,-0.039 -0.281,-0.039 -0.106,0.027 -0.161,0.199 -0.161,0.519 0,1.414 0.735,3.066 2.2,4.961 1.519,1.945 2.906,2.918 4.16,2.918 1.148,0 1.746,1.641 1.801,4.922 -0.161,3.387 -0.243,5.187 -0.243,5.398 0,0.321 0.137,0.867 0.403,1.641 l 0.398,1.039 C 47.348,32.84 46.121,31.547 44.52,29.652 43.188,28.105 42.305,27.027 41.879,26.414 Z m -1.481,-3.52 c -0.023,-0.347 -0.265,-1.773 -0.718,-4.281 -0.426,-2.691 -0.692,-4.906 -0.801,-6.637 -0.133,0.371 -0.254,1.481 -0.359,3.321 -0.106,1.492 -0.161,2.586 -0.161,3.277 0,0.109 0.68,1.547 2.039,4.32 z m -4.32,-12.879 -1.68,0.641 c 0.297,3.199 0.082,5.371 -0.636,6.52 -0.508,0.8 -1.43,1.214 -2.762,1.238 -1.574,0.055 -2.574,0.203 -3,0.441 -0.934,0.586 -1.398,1.989 -1.398,4.199 0,0.454 0.199,0.801 0.597,1.043 0.696,0.45 2.082,0.692 4.16,0.719 l 0.121,2.719 c 0,0.535 -0.054,2.078 -0.16,4.641 -0.132,2.906 -0.265,5.148 -0.398,6.718 L 30.68,39.492 C 30.492,36.718 30.387,35.066 30.359,34.531 30.332,33.066 29.879,31.769 29,30.652 c -0.855,-0.883 -1.281,-1.336 -1.281,-1.359 0,-0.321 -0.039,-0.508 -0.117,-0.563 -0.11,0 -0.215,-0.027 -0.321,-0.078 -0.933,0.238 -2.082,1.039 -3.441,2.398 -2.078,2.028 -3.121,4.426 -3.121,7.2 0,1.492 0.386,2.679 1.16,3.558 0.695,0.778 1.828,1.442 3.402,2 0.051,-0.504 0.094,-1.09 0.117,-1.758 0.082,-0.507 0.336,-1.082 0.762,-1.718 0.371,0.32 0.719,1.199 1.039,2.636 -0.027,-0.293 -0.039,-0.585 -0.039,-0.878 0,-1.122 0.172,-1.985 0.52,-2.598 0.347,-0.617 0.812,-0.922 1.398,-0.922 0.828,0 1.414,0.762 1.762,2.281 0.238,1.172 0.519,3.668 0.84,7.481 1.922,-1.84 3.359,-3.067 4.32,-3.68 0.398,-0.266 1.625,-0.867 3.68,-1.801 l 0.121,-0.398 -0.922,0.16 c 0,-0.082 0.148,-0.988 0.441,-2.719 0.293,-1.629 0.442,-2.773 0.442,-3.441 0,-2.055 -0.551,-4.121 -1.641,-6.199 -1.094,-2.082 -1.641,-3.575 -1.641,-4.481 0,-0.269 0.122,-1.308 0.36,-3.121 0.215,-1.785 0.32,-2.812 0.32,-3.082 0,-1.227 -0.414,-3.316 -1.238,-6.277 0,-0.801 0.051,-1.895 0.156,-3.282 z m 45.563,6.481 c -0.055,-2.426 -0.895,-3.641 -2.52,-3.641 -0.801,0 -1.426,0.199 -1.883,0.602 -0.316,0.293 -0.597,0.773 -0.84,1.437 0.082,0.668 0.762,2 2.043,4 1.332,2.11 2.454,3.52 3.36,4.243 l 0.078,-3.282 c 0,-1.332 -0.078,-2.453 -0.238,-3.359 z m 15.839,8.719 0.04,0.281 0.039,0.039 0.043,0.242 c 0.105,0.266 0.277,0.652 0.519,1.16 0.317,0.321 0.481,2.399 0.481,6.239 0,-0.028 0.464,-1.215 1.398,-3.559 0.453,-1.176 0.68,-4.055 0.68,-8.641 0,-1.254 -0.2,-2.226 -0.602,-2.918 -0.371,-0.644 -0.863,-0.949 -1.476,-0.921 l -0.524,0.199 c -0.183,0.64 -0.332,1.347 -0.437,2.121 z m -8.8,11.121 c 0.16,0.265 0.332,0.519 0.519,0.761 0.934,1.2 1.492,1.973 1.68,2.317 0.082,-0.426 0.359,-1.414 0.844,-2.957 0.449,-1.496 0.679,-2.281 0.679,-2.36 L 92.441,33.89 C 92.176,31.41 91.695,29.183 91,27.211 90.359,25.32 89.695,24.133 89,23.652 c -0.371,0.293 -0.719,1.32 -1.039,3.078 -0.293,1.735 -0.453,2.656 -0.481,2.762 0.879,0.508 1.321,1.094 1.321,1.762 0,0.265 -0.121,0.73 -0.36,1.398 -0.269,0.668 -0.519,1.145 -0.761,1.441 0.027,0.079 0.054,0.172 0.082,0.278 0.211,0.695 0.519,1.347 0.918,1.961 z m 8.281,3.761 c -0.16,0.161 -0.242,0.332 -0.242,0.516 0,0.188 0.082,0.348 0.242,0.484 0.133,0.161 0.293,0.239 0.48,0.239 0.188,0 0.36,-0.078 0.52,-0.239 0.133,-0.136 0.199,-0.296 0.199,-0.484 0,-0.184 -0.066,-0.355 -0.199,-0.516 -0.16,-0.136 -0.336,-0.203 -0.52,-0.203 -0.187,0 -0.347,0.067 -0.48,0.203 z m -86,31.559 C 10.695,71.144 10.453,70.199 10.238,68.812 9.867,67.636 8.988,67.05 7.602,67.05 c -0.055,0 -0.469,0.348 -1.243,1.043 -2.054,-1.816 -3.214,-2.722 -3.48,-2.722 -0.32,0 -0.492,0.015 -0.52,0.039 l 0.039,0.082 c -0.453,0.828 -0.679,2.332 -0.679,4.519 0.961,1.36 2.519,2.747 4.679,4.161 2.43,1.574 4.95,3.933 7.563,7.082 0.105,-0.961 -0.242,-2.321 -1.039,-4.082 -1.016,-2.161 -1.617,-3.668 -1.801,-4.52 h -0.16 z m 15.879,-18.801 0.199,0.082 c 0.535,0 1.508,0.094 2.922,0.278 0.105,0.027 0.227,0.054 0.359,0.082 -0.215,-0.082 -0.425,-0.16 -0.64,-0.243 -0.719,-0.292 -1.481,-0.652 -2.282,-1.078 -0.105,0.293 -0.293,0.586 -0.558,0.879 z M 4.16,51.57 3.879,51.89 4,51.773 Z m 11.52,0.16 c 0.293,-0.32 0.812,-0.476 1.558,-0.476 0.907,0 1.496,0.453 1.762,1.359 0.133,0.531 0.188,1.598 0.16,3.199 v 6.641 c -3.039,-1.176 -4.558,-3 -4.558,-5.481 0,-2.695 0.359,-4.441 1.078,-5.242 z m 32,-9.476 c -2.426,-0.161 -4.625,-0.149 -6.602,0.039 l -0.598,0.558 h 0.481 C 43.84,42.64 46.078,42.437 47.68,42.254 Z M 32.762,43.652 32.52,42.093 c 0.48,-0.054 0.906,0.145 1.281,0.598 l 0.121,0.602 c -0.082,0.238 -0.469,0.359 -1.16,0.359 z m 18.636,-6.398 c -0.265,-0.27 -0.531,-0.563 -0.796,-0.883 -0.536,-0.613 -0.801,-1.028 -0.801,-1.238 l 0.078,-0.204 c 0.082,-0.132 0.199,-0.211 0.359,-0.238 0.055,0.027 0.215,0.117 0.481,0.281 0.293,0.266 0.48,0.614 0.562,1.039 z"
   style="fill:#9b9286;fill-rule:evenodd"
   id="path18" />

      <path
   inkscape:connector-curvature="0"
   d="m 102.52,49.531 0.039,-0.121 c -0.614,-1.09 -1.332,-1.637 -2.161,-1.637 -0.32,0 -0.519,0.027 -0.597,0.078 -0.082,0.055 -0.188,0.121 -0.321,0.199 l -0.359,0.403 c 0.559,0.398 1.027,0.707 1.399,0.918 l 0.281,0.16 c 0.828,0.453 1.347,0.801 1.558,1.039 z M 60.961,48.293 c -0.375,-0.215 -1.106,-0.36 -2.199,-0.442 -0.508,0.028 -0.922,0.149 -1.242,0.36 -0.215,0.132 -0.465,0.386 -0.758,0.761 l 0.597,0.758 0.321,0.32 c 0,0.028 0.015,0.043 0.039,0.043 l 0.64,0.559 c 0.321,0.16 0.563,0.375 0.719,0.641 0.668,0 1.242,-0.243 1.723,-0.723 0.48,-0.477 0.719,-1.051 0.719,-1.719 z m 27.758,9 c 0.082,0.265 0.254,0.586 0.519,0.961 0.188,0.293 0.375,0.933 0.563,1.918 l 0.558,-0.122 1.602,-0.398 c -0.109,-0.746 -0.469,-1.359 -1.082,-1.84 -0.641,-0.508 -1.359,-0.679 -2.16,-0.519 z M 69.52,67.172 h -0.04 l 0.04,-0.039 v -0.161 h -4.04 v 1.84 h 4.04 z m 3.601,-0.84 c -0.43,0.054 -0.641,0.121 -0.641,0.199 0.133,0.055 0.227,0.16 0.282,0.32 l 1.316,-0.519 c -0.293,-0.028 -0.613,-0.028 -0.957,0 z m -8.359,-8 0.078,0.48 0.48,-0.32 c 0.348,-0.238 0.535,-0.465 0.559,-0.68 -0.078,-0.347 -0.211,-0.547 -0.399,-0.601 -0.402,0.054 -0.64,0.425 -0.718,1.121 z m -6.602,13.238 0.719,0.281 0.281,0.16 v 0.961 l 0.801,-0.082 c 0.504,-0.347 0.961,-0.785 1.359,-1.32 -0.187,-0.398 -0.332,-0.68 -0.441,-0.84 -0.133,-0.211 -0.441,-0.32 -0.918,-0.32 l -2.16,0.203 c 0,0.051 -0.094,0.133 -0.281,0.238 z m -19.48,8.801 c -0.907,-0.531 -1.934,-0.84 -3.078,-0.918 l -1.204,0.16 c 0.243,0.105 0.762,0.332 1.563,0.68 0.851,0.398 1.32,0.597 1.398,0.597 z m 10.922,-17 c 1.812,-1.145 2.625,-1.895 2.437,-2.238 -0.184,-0.321 -0.625,-0.481 -1.32,-0.481 -0.239,0 -0.453,0.121 -0.641,0.359 -0.051,0.082 -0.211,0.36 -0.476,0.84 l -0.043,1.52 z m -23.524,3.722 c 0.617,0.266 1.254,0.704 1.922,1.317 0.613,0.562 1.121,0.91 1.52,1.043 h 0.878 c 0.082,-0.188 0.176,-0.414 0.282,-0.68 0.082,-0.215 0.121,-0.496 0.121,-0.84 0,-0.457 -0.266,-0.883 -0.801,-1.281 -0.801,-0.535 -2.039,-0.867 -3.719,-1 -0.773,-0.375 -1.16,-0.293 -1.16,0.238 0,0.321 0.106,0.575 0.32,0.762 0.106,0.078 0.321,0.227 0.637,0.441 z"
   style="fill:#8c847c;fill-rule:evenodd"
   id="path20" />

      <path
   inkscape:connector-curvature="0"
   d="m 93.719,55.933 h -1.52 v 1.559 h 1.52 z m 2.64,-6.523 c -0.48,0.027 -0.984,0.148 -1.519,0.363 -0.106,0.051 -0.227,0.106 -0.36,0.16 -0.32,0.321 -0.48,0.68 -0.48,1.078 0,0.321 0.039,0.536 0.121,0.641 0.051,0.078 0.172,0.215 0.359,0.398 l 2,1.204 5.879,-1.883 -0.16,-0.438 c -0.48,-0.59 -0.785,-0.906 -0.918,-0.961 -0.133,-0.082 -0.773,-0.226 -1.922,-0.441 L 96.68,49.41 Z M 58.16,71.57 C 54.133,71.011 52.078,70.73 52,70.73 l -2.121,0.203 c 0,0.024 -0.067,0.067 -0.199,0.117 -0.133,0.083 -0.2,0.282 -0.2,0.602 0,0.691 0.454,1.227 1.36,1.602 1.547,0.636 4.586,1.078 9.121,1.316 v -1.68 l -0.801,0.082 v -0.961 l -0.281,-0.16 z m 27.36,-14.238 -0.758,0.32 c -1.922,1.172 -2.95,1.813 -3.082,1.918 -1.016,0.773 -1.52,1.59 -1.52,2.441 0,0.266 0.149,0.602 0.442,1 0.425,0.614 1.011,0.922 1.757,0.922 1.895,0 3.629,-0.457 5.2,-1.363 1.226,-0.719 2.16,-1.559 2.8,-2.52 l -0.558,0.122 C 89.613,59.187 89.426,58.547 89.238,58.254 88.973,57.879 88.801,57.558 88.723,57.293 L 88.359,57.211 C 87.695,57.133 87.066,57.105 86.48,57.133 Z M 66.922,84.89 h 0.316 L 69.602,83.972 70,83.41 c -0.398,-0.344 -0.801,-0.586 -1.199,-0.719 -0.613,-0.215 -1.442,-0.32 -2.481,-0.32 l -1.281,0.039 c -0.078,0 -0.16,0.027 -0.238,0.082 -0.188,0.105 -0.281,0.32 -0.281,0.641 0,0.878 0.613,1.343 1.839,1.398 0.879,0.055 1.067,0.176 0.563,0.359 z M 35.199,55.093 v 0.118 c 0.188,0.16 0.613,0.425 1.281,0.8 0.719,0.426 1.2,0.653 1.442,0.68 l 0.437,0.039 c 0.106,-1.039 -0.148,-1.691 -0.757,-1.957 -0.348,-0.137 -1.161,-0.187 -2.442,-0.16 z m 23.879,-3.8 C 58.922,51.027 58.68,50.812 58.359,50.652 l -0.437,-0.121 c -0.16,0.082 -0.281,0.199 -0.363,0.359 0,0.243 0.269,0.414 0.8,0.52 0.536,0.109 0.774,0.066 0.719,-0.117 z M 71.68,73.211 c 0.347,0.132 0.972,-0.293 1.882,-1.278 -0.429,-0.297 -1.187,-0.441 -2.281,-0.441 0,0.051 -0.066,0.187 -0.203,0.398 -0.133,0.243 -0.211,0.481 -0.238,0.723 0.265,0.051 0.547,0.254 0.84,0.598 z m -6.2,-4.52 c -0.292,-0.055 -0.558,-0.078 -0.8,-0.078 l -1.559,0.16 c 0.238,0.426 0.492,0.731 0.758,0.918 0.508,0.348 1.332,0.641 2.48,0.879 L 67.16,69.254 C 67,69.117 66.652,68.972 66.121,68.812 H 65.48 Z m 4.04,-1.558 -0.04,0.039 h 0.04 l 0.441,0.441 c 0.426,0.32 0.891,0.52 1.398,0.598 l 0.84,0.242 v -1.32 C 72.066,67.027 71.773,66.945 71.32,66.89 70.84,66.812 70.414,66.797 70.039,66.851 Z m -4.68,-8.321 -0.078,-0.48 c -0.27,-0.266 -0.617,-0.399 -1.043,-0.399 -0.321,0 -0.774,0.039 -1.36,0.117 l -0.757,0.122 c 0,0.082 -0.122,0.171 -0.364,0.281 0.137,0.183 0.149,0.387 0.043,0.597 0.184,0.27 1.254,0.735 3.199,1.403 0.239,-0.856 0.36,-1.403 0.36,-1.641 z M 45.762,84.453 C 45.547,84.187 45.375,84 45.238,83.89 45.055,83.707 44.762,83.613 44.359,83.613 l -2.48,0.238 c 1.066,0.453 1.883,0.746 2.441,0.879 0.348,0.082 0.746,0.11 1.2,0.082 0,-0.082 0.082,-0.199 0.242,-0.359 z M 36,84.652 c 0.133,-0.082 0.855,-0.535 2.16,-1.359 -0.105,-1.067 -1.801,-2.067 -5.082,-3 -3.305,-0.961 -4.957,-0.563 -4.957,1.199 0,1.039 1.106,1.933 3.32,2.68 1.118,0.375 2.254,0.64 3.399,0.8 0.375,0 0.762,-0.105 1.16,-0.32 z M 49.602,63.371 h -0.043 l 0.043,-1.52 c -0.161,-0.746 -0.774,-1.414 -1.84,-2 -0.961,-0.508 -1.883,-0.758 -2.762,-0.758 -0.934,0 -1.613,0.372 -2.039,1.118 -0.242,0.425 -0.359,0.855 -0.359,1.281 0,0.906 0.664,1.652 2,2.238 1.066,0.481 2.093,0.723 3.078,0.723 0.535,0 1.16,-0.094 1.879,-0.281 z M 46.559,51.933 c 1.203,0.371 2.652,0.559 4.363,0.559 1.707,0 3.172,-0.188 4.398,-0.559 1.2,-0.375 1.801,-0.828 1.801,-1.363 0,-0.531 -0.601,-0.984 -1.801,-1.359 -1.226,-0.371 -2.695,-0.559 -4.398,-0.559 -1.707,0 -3.16,0.188 -4.363,0.559 -1.227,0.375 -1.84,0.828 -1.84,1.359 0,0.535 0.613,0.988 1.84,1.363 z M 29.52,69.453 C 29.121,69.32 28.613,68.972 28,68.41 c -0.668,-0.613 -1.305,-1.051 -1.922,-1.317 -1.039,-0.242 -2.691,-0.375 -4.957,-0.402 0,0.828 -0.176,2.055 -0.519,3.68 -0.375,1.469 -0.563,2.226 -0.563,2.281 0,0.641 0.293,1.121 0.883,1.441 0.637,0.317 1.68,0.477 3.117,0.477 1.656,0 3.027,-0.652 4.121,-1.957 0.906,-1.066 1.36,-2.121 1.36,-3.16 z"
   style="fill:#c3b9ac;fill-rule:evenodd"
   id="path22" />

      <path
   inkscape:connector-curvature="0"
   d="m 87.762,54.972 c 0.984,-1.785 1.929,-3.32 2.84,-4.601 0.398,-0.692 0.597,-1.852 0.597,-3.481 0,-0.504 -0.078,-0.906 -0.238,-1.199 -0.242,-0.426 -0.707,-0.734 -1.402,-0.918 -0.079,-0.109 -0.145,-1.547 -0.2,-4.32 -0.105,-1.629 -0.332,-3 -0.679,-4.121 -0.403,-0.614 -0.707,-1.266 -0.918,-1.961 -0.055,-0.106 -0.121,-0.199 -0.203,-0.278 L 87.078,34.054 C 86.945,33.707 86.922,33.011 87,31.972 l -0.16,-1.64 c 0,-0.453 0.105,-1.094 0.32,-1.922 0.348,-1.438 0.774,-4.266 1.278,-8.477 L 87.719,19.57 88.52,19.293 v -0.082 c 0.425,-0.051 0.933,-0.067 1.519,-0.039 0.586,0.05 1.016,0.132 1.281,0.238 1.68,0 3.106,0.496 4.282,1.48 1.171,1.016 1.757,2.227 1.757,3.641 l 0.121,0.68 0.161,-5.758 -1.161,-6.84 0.243,-0.359 c 0.023,0 0.039,-0.028 0.039,-0.082 h 0.48 c 0.106,0 0.481,0.226 1.117,0.679 0.856,0.614 1.641,1.348 2.364,2.203 l 0.156,0.157 c -0.746,-1.332 -1.133,-2.012 -1.156,-2.039 l -0.161,-0.36 c 2.266,0.215 3.747,0.188 4.438,-0.082 0.695,-0.265 1.039,-0.918 1.039,-1.957 0,-1.148 -1.359,-2.082 -4.078,-2.801 -2.081,-0.562 -4.015,-0.839 -5.8,-0.839 -0.906,0 -1.894,1.05 -2.961,3.16 -0.906,2.183 -1.398,3.359 -1.476,3.519 l -0.121,0.199 -0.403,-3.64 -0.476,0.883 0.355,-1.883 C 90.079,8.277 89.841,7.332 89.36,6.531 88.989,5.945 88.563,5.57 88.079,5.41 87.923,5.386 87.763,5.371 87.603,5.371 L 84.001,4.89 c 0.535,0.696 1.148,2.149 1.84,4.36 0.801,2.48 1.254,4.695 1.359,6.64 l -0.121,0.801 C 85.349,13.703 83.575,11.304 81.763,9.492 81.255,8.957 80.47,8.437 79.403,7.929 78.813,7.609 78.521,7.133 78.521,6.492 c 0,-0.508 0.121,-1.293 0.359,-2.359 -0.559,0.503 -1.024,1.05 -1.399,1.636 -0.292,0.453 -0.441,0.75 -0.441,0.883 0,0.559 0.883,1.508 2.641,2.84 1.761,1.332 2.64,2.812 2.64,4.441 0,0.614 -0.226,1.465 -0.679,2.559 0.16,0.906 0.238,2.027 0.238,3.359 l -0.078,3.282 C 80.896,22.41 79.774,21 78.442,18.89 c -1.281,-2 -1.961,-3.332 -2.043,-4 C 75.282,11.879 74.642,10.039 74.481,9.371 74.349,8.785 74.282,7.718 74.282,6.172 l 0.117,-2.84 -2.796,-0.559 c -0.481,2.957 -0.868,5.719 -1.161,8.281 l -0.281,0.758 C 70.028,11.492 69.521,9.961 68.642,7.211 68.028,5.371 67.481,4.16 67.001,3.57 66.173,2.586 64.962,1.812 63.36,1.254 61.763,0.8 60.774,0.453 60.399,0.211 l -3.918,0.882 c 5.465,1.04 8.918,2.133 10.36,3.278 1.226,0.933 1.84,2.707 1.84,5.32 0,1.574 -0.575,2.363 -1.719,2.363 -0.934,-0.082 -1.574,-0.148 -1.922,-0.203 -0.531,-0.051 -0.918,0.067 -1.16,0.36 -0.477,0.586 -0.719,3.109 -0.719,7.562 0,1.332 0.203,2.625 0.602,3.879 0.32,1.066 0.64,1.719 0.961,1.961 l 0.078,-0.719 c 0.051,-1.386 0.226,-2.75 0.519,-4.082 0.426,-1.894 1,-3.094 1.719,-3.601 1.199,0.91 2.082,2.8 2.641,5.683 0.347,2.852 0.547,4.438 0.597,4.758 0.243,1.094 1.176,2.52 2.801,4.281 1.734,1.891 2.668,3.012 2.801,3.36 -0.051,-0.375 -0.441,-1.469 -1.16,-3.282 -0.664,-1.734 -1.078,-2.718 -1.239,-2.957 1.172,1.493 2.266,3.317 3.282,5.477 0.984,2.293 1.718,3.91 2.199,4.84 1.598,3.121 3.867,4.457 6.801,4 0.078,-0.985 0.105,-3.293 0.078,-6.918 0.801,1.601 1.586,5.199 2.359,10.801 0,1.171 -0.144,2.293 -0.437,3.359 -0.137,0.375 -0.817,2.32 -2.043,5.84 0.293,-0.266 0.652,-0.547 1.082,-0.84 l 0.961,-0.641 z m 26.558,-5 c -2.8,-1.015 -4.972,-1.761 -6.519,-2.242 l -0.641,-0.078 c 2.852,-0.082 4.719,-1.492 5.602,-4.242 0.078,-0.211 0.426,-2.613 1.039,-7.199 0.265,-1.84 0.652,-3.571 1.16,-5.2 0.316,-0.984 0.48,-2.625 0.48,-4.918 0,-0.214 -0.109,-1.148 -0.32,-2.8 -0.242,-1.973 -0.48,-3.493 -0.719,-4.559 l -0.32,-1.082 c 0.078,0.641 -0.016,1.84 -0.281,3.602 -0.215,1.625 -0.426,2.757 -0.641,3.398 l -0.437,0.961 c -0.188,-0.773 -0.27,-1.855 -0.243,-3.242 0,-0.719 0.028,-1.531 0.082,-2.438 0,-1.043 -0.601,-1.933 -1.8,-2.679 -1.227,-0.75 -3.149,-1.403 -5.762,-1.961 l -0.758,-0.2 c 0.211,0.426 0.531,1.864 0.957,4.317 0.403,2.215 0.613,3.562 0.641,4.043 v 1 c -0.906,-1.684 -1.707,-3.176 -2.399,-4.481 0.426,1.414 0.641,2.934 0.641,4.559 -0.508,6.055 -0.762,9.348 -0.762,9.879 0,0.32 0.082,2.43 0.242,6.32 0.051,1.52 -0.093,2.52 -0.441,3 -0.426,0.563 -1.398,0.961 -2.918,1.199 -0.109,0.028 -2.48,0.309 -7.121,0.84 l 0.32,0.16 c 0.078,0.028 0.321,0.121 0.719,0.282 0.293,0.105 0.441,0.187 0.441,0.242 2.934,0.105 5.051,0.222 6.36,0.359 1.465,0.133 2.918,0.371 4.359,0.719 1.36,0.187 3.094,0.613 5.199,1.281 1.094,0.371 2.348,0.797 3.762,1.278 z m -80.242,4.121 c -1.73,-2.187 -2.773,-3.441 -3.117,-3.761 -0.563,-0.426 -1.414,-1.188 -2.563,-2.282 l -0.117,-0.117 c 0.824,1.332 1.414,2.227 1.758,2.68 0.883,1.199 1.961,2.344 3.242,3.437 l -5.082,-3.199 c -0.054,-0.133 -0.293,-0.707 -0.719,-1.718 -0.375,-0.856 -0.585,-1.403 -0.64,-1.641 0,1.918 0.707,3.558 2.121,4.918 0.211,0.242 0.453,0.453 0.719,0.64 0.215,0.083 0.425,0.161 0.64,0.243 0.852,0.105 1.375,0.25 1.559,0.437 l -0.32,0.043 1.64,0.637 c 0.242,0.027 0.508,0.043 0.801,0.043 z m 58.32,-20 c 1.387,-0.054 2.524,0.36 3.403,1.239 1.414,1.386 2.972,2.48 4.679,3.281 -0.32,-2.801 -1.265,-4.68 -2.839,-5.641 l -0.082,3.481 c -0.985,-1.332 -1.598,-2.481 -1.84,-3.442 -0.239,0.028 -0.824,0.176 -1.758,0.442 -0.961,0.238 -1.469,0.387 -1.52,0.441 z m -16.597,4.52 c -0.242,0.078 -1.36,0.359 -3.36,0.84 -1.816,0.453 -2.894,0.758 -3.242,0.918 -1.332,0.613 -3.094,1.855 -5.277,3.722 -1.977,1.758 -3.016,2.68 -3.121,2.758 3.625,-1.785 5.679,-2.918 6.16,-3.398 0.133,-0.133 0.465,-0.067 1,0.199 1.414,0 3.758,0.398 7.039,1.199 3.254,0.801 5.602,1.199 7.039,1.199 C 80.574,44.8 79,44.117 77.32,44.011 74.254,43.797 72.227,43.57 71.238,43.332 L 70,43.172 c 0.961,-0.106 2.773,-0.133 5.441,-0.079 0.184,-0.402 0.305,-1.894 0.36,-4.48 z M 73,26.05 c -1.574,-3.917 -2.668,-6.507 -3.281,-7.757 -0.957,-2 -2.348,-2.961 -4.16,-2.883 h -0.637 c 0.316,-0.453 0.691,-0.824 1.117,-1.117 0.32,-0.215 0.535,-0.321 0.641,-0.321 1.465,0 2.906,0.907 4.32,2.719 1.145,1.442 1.812,2.668 2,3.68 z m 24.602,-0.277 0.039,0.32 0.082,1.161 0.355,0.679 0.043,-1 c -0.242,-0.508 -0.414,-0.894 -0.519,-1.16 z M 11.121,72.652 c 0.348,0 0.641,-0.094 0.879,-0.281 0.238,-0.16 0.359,-0.36 0.359,-0.598 0.161,-0.695 0.36,-1.375 0.602,-2.043 0,-0.504 -0.199,-1.305 -0.602,-2.398 -0.347,-1.012 -0.679,-1.785 -1,-2.321 C 6.641,62.558 3.934,61.172 3.238,60.851 L 3.68,61.332 C 8.559,65.093 11,68.16 11,70.531 l -0.039,1.121 v 1 z m 4.039,-5.16 c 0,-0.535 -0.238,-1 -0.719,-1.399 -0.507,-0.375 -1.109,-0.562 -1.8,-0.562 0.238,0.16 0.679,0.426 1.32,0.801 0.559,0.375 0.961,0.761 1.199,1.16 z M 3.879,51.89 2.199,53.652 c 0.746,-0.027 2.774,0.746 6.082,2.32 C 8.066,54.504 7.707,53.211 7.199,52.093 7.094,51.933 6.52,50.945 5.48,49.133 l -0.082,0.199 c 0.829,1.652 1.321,2.746 1.481,3.281 C 6.48,52.558 5.945,52.41 5.281,52.172 4.613,51.906 4.188,51.773 4,51.773 Z M 16.641,26.73 c -0.082,0.137 -1.973,3.336 -5.68,9.602 0.027,0.027 0.066,0.039 0.117,0.039 0.801,0.347 1.91,0.707 3.32,1.082 0.907,0.265 1.497,0.547 1.762,0.84 0.426,0.507 0.625,2.879 0.602,7.121 0.023,-0.11 0.265,-1.281 0.718,-3.52 0.106,-0.535 0.161,-3 0.161,-7.402 0,-0.879 -0.188,-1.895 -0.563,-3.039 -0.211,-0.586 -0.41,-1.121 -0.598,-1.602 0,-0.508 0.051,-1.465 0.161,-2.879 z m 6.437,-7.918 -2.277,2.559 c 0,1.601 0.094,2.695 0.277,3.281 0.375,0.691 0.723,1.402 1.043,2.121 0.106,-0.695 0.293,-2.094 0.559,-4.203 0.293,-2.316 0.425,-3.57 0.398,-3.758 z m 7.524,-6.359 c -0.668,0.371 -1.309,0.773 -1.922,1.199 l 0.64,3.68 c 0.028,-0.028 0.188,-0.239 0.481,-0.641 0.133,-0.215 0.238,-0.32 0.32,-0.32 0.078,-0.879 0.238,-2.188 0.481,-3.918 z M 1.281,67.89 1.039,66.851 1,66.812 c 0,0.16 0.012,0.332 0.039,0.52 0.055,0.347 0.133,0.535 0.242,0.558 z m 38.52,-25.437 -0.121,0.398 h 0.8 l 0.598,-0.558 c 1.043,-0.856 1.762,-2.27 2.16,-4.243 0.242,-1.093 0.364,-2.183 0.364,-3.281 0,-1.332 -0.414,-2.679 -1.243,-4.039 -1.757,-2.906 -3.093,-5.32 -4,-7.238 -0.105,1.172 -0.16,2.027 -0.16,2.558 0,2.348 0.496,4.172 1.481,5.481 0.961,1.281 1.441,2.359 1.441,3.238 0,2.617 -0.441,5.176 -1.32,7.684 z m 8.679,-37.641 0.282,0.52 0.879,1 C 49.508,5.933 49.266,5.343 48.922,4.57 Z m 1.758,2 c 1.121,3.973 1.961,6.321 2.524,7.039 L 53,13.894 53.078,12.211 c 0,-1.25 -0.172,-2.2 -0.519,-2.84 C 52.238,8.758 51.465,7.906 50.238,6.812 Z M 38.84,9.011 36.398,9.89 c 0.137,0.535 0.149,1.707 0.043,3.52 l 0.52,-0.641 C 37.52,11.84 38.145,10.586 38.84,9.011 Z"
   style="fill:#7c7367;fill-rule:evenodd"
   id="path24" />

      <path
   inkscape:connector-curvature="0"
   d="m 75.879,35.293 c 0.082,0.933 0.055,2.039 -0.078,3.316 -0.055,2.59 -0.176,4.082 -0.36,4.484 -2.668,-0.054 -4.48,-0.027 -5.441,0.079 l 1.238,0.16 c 0.989,0.238 3.016,0.465 6.082,0.679 1.68,0.106 3.254,0.786 4.719,2.039 l 0.52,0.602 c 0.75,0.961 1.363,2.266 1.839,3.918 0.641,2.27 0.762,4.629 0.364,7.082 l 0.758,-0.32 0.199,-0.879 c 1.226,-3.52 1.906,-5.469 2.043,-5.84 0.293,-1.066 0.437,-2.188 0.437,-3.359 -0.773,-5.602 -1.558,-9.204 -2.359,-10.801 0.027,3.625 0,5.933 -0.078,6.918 -2.934,0.453 -5.203,-0.879 -6.801,-4 -0.481,-0.934 -1.215,-2.547 -2.199,-4.84 -1.016,-2.16 -2.11,-3.988 -3.282,-5.481 0.161,0.243 0.575,1.227 1.239,2.961 0.722,1.813 1.109,2.907 1.16,3.282 z m 27.562,-15.321 c 0.692,1.305 1.493,2.801 2.399,4.481 v -1 c -0.028,-0.481 -0.238,-1.828 -0.641,-4.043 -0.426,-2.449 -0.746,-3.891 -0.961,-4.317 l 0.762,0.2 c 2.613,0.558 4.535,1.215 5.762,1.961 1.199,0.746 1.797,1.64 1.797,2.679 -0.051,0.907 -0.079,1.719 -0.079,2.438 -0.027,1.387 0.051,2.469 0.239,3.242 l 0.441,-0.961 c 0.215,-0.641 0.426,-1.773 0.641,-3.398 0.265,-1.762 0.359,-2.961 0.277,-3.602 l 0.32,1.082 c 0.243,1.066 0.481,2.586 0.723,4.559 0.211,1.652 0.317,2.586 0.317,2.8 0,2.293 -0.161,3.934 -0.477,4.918 -0.508,1.629 -0.895,3.36 -1.16,5.2 -0.613,4.589 -0.961,6.988 -1.043,7.203 -0.879,2.746 -2.746,4.16 -5.598,4.238 l 0.641,0.082 c 1.547,0.477 3.719,1.227 6.519,2.238 l 0.52,-0.558 c 1.281,-1.387 2.465,-3 3.558,-4.84 1.2,-2.055 1.801,-3.613 1.801,-4.68 0,-0.535 -0.215,-3.922 -0.64,-10.16 0,-0.535 0.265,-3.336 0.8,-8.402 0,-1.227 -1.082,-3.039 -3.242,-5.438 -2.051,-2.269 -4.305,-4.242 -6.758,-5.922 -1.36,-1.039 -2.19,-1.679 -2.48,-1.918 -0.4,-0.293 -0.99,-0.48 -1.76,-0.562 -3.98,-0.266 -9.987,-0.957 -18.042,-2.078 0.481,0.16 0.906,0.531 1.281,1.117 0.481,0.801 0.719,1.75 0.719,2.84 l 0.121,1 0.399,3.64 0.121,-0.199 c 0.078,-0.16 0.57,-1.332 1.48,-3.519 1.067,-2.106 2.051,-3.16 2.957,-3.16 1.789,0 3.719,0.281 5.801,0.839 2.719,0.723 4.082,1.653 4.082,2.801 0,1.039 -0.348,1.695 -1.043,1.961 -0.691,0.266 -2.172,0.293 -4.437,0.078 l 0.16,0.36 c 0.023,0.027 0.414,0.707 1.156,2.043 0.59,1.117 1.445,2.703 2.566,4.757 z m -15,-0.039 c 0.024,0.024 1.024,0.797 3,2.321 1.2,0.906 2.118,1.73 2.758,2.476 1.762,2.16 2.266,4.922 1.52,8.281 0.242,0.961 0.855,2.11 1.84,3.442 l 0.082,-3.481 c 0.16,-2.265 0.187,-4.175 0.082,-5.718 l -0.082,-1.161 -0.082,-0.562 -0.039,-0.039 -0.04,-0.281 -0.121,-0.68 c 0,-1.414 -0.586,-2.625 -1.757,-3.641 -1.175,-0.984 -2.601,-1.48 -4.281,-1.48 -0.375,-0.106 -0.855,-0.172 -1.441,-0.199 -0.586,0 -1.039,0.027 -1.359,0.082 l -0.801,0.277 0.722,0.363 z M 71.603,2.773 C 69.868,2.425 67.923,1.691 65.763,0.57 64.536,-0.043 62.747,-0.16 60.399,0.211 c 0.375,0.242 1.364,0.586 2.961,1.043 1.602,0.558 2.813,1.332 3.641,2.316 0.48,0.59 1.027,1.801 1.641,3.641 0.879,2.75 1.386,4.281 1.519,4.601 l 0.281,-0.758 C 70.735,8.492 71.122,5.73 71.603,2.773 Z M 84.001,4.89 78.88,4.093 v 0.04 c -0.238,1.066 -0.359,1.851 -0.359,2.359 0,0.641 0.292,1.117 0.882,1.441 1.067,0.504 1.852,1.024 2.36,1.559 1.812,1.812 3.586,4.215 5.316,7.199 L 87.2,15.89 C 87.095,13.945 86.642,11.73 85.841,9.254 85.149,7.039 84.536,5.586 84.001,4.89 Z m -11,21.16 v -5.679 c -0.188,-1.012 -0.852,-2.238 -2,-3.68 -1.414,-1.812 -2.852,-2.719 -4.32,-2.719 -0.106,0 -0.321,0.106 -0.641,0.321 -0.426,0.293 -0.801,0.664 -1.117,1.117 h 0.64 c 1.813,-0.078 3.2,0.883 4.161,2.883 0.609,1.254 1.703,3.84 3.277,7.757 z m -58.078,42.161 0.117,-0.278 0.121,-0.441 c -0.238,-0.399 -0.64,-0.785 -1.199,-1.16 -0.641,-0.375 -1.082,-0.641 -1.32,-0.801 -0.348,-0.238 -0.719,-0.465 -1.121,-0.68 l -0.481,-0.199 0.32,0.359 c 0.321,0.536 0.653,1.309 1,2.321 0.403,1.093 0.602,1.894 0.602,2.398 l 0.117,1.203 c 0.082,-0.16 0.402,-0.59 0.961,-1.281 0.453,-0.586 0.746,-1.066 0.883,-1.441 z M 26.841,47.492 c 0.055,0.238 0.265,0.785 0.64,1.641 0.426,1.011 0.665,1.585 0.719,1.718 l 5.082,3.199 c -1.281,-1.093 -2.359,-2.238 -3.242,-3.437 -0.344,-0.453 -0.934,-1.348 -1.758,-2.68 -0.109,-0.508 -0.281,-1.066 -0.519,-1.679 -0.321,-0.75 -0.602,-1.161 -0.84,-1.243 z m -22.68,4.078 -0.16,0.203 c 0.188,0 0.613,0.133 1.281,0.399 0.664,0.238 1.199,0.386 1.598,0.441 C 6.72,52.078 6.228,50.984 5.399,49.332 5.001,50.293 4.587,51.039 4.161,51.57 Z"
   style="fill:#635b52;fill-rule:evenodd"
   id="path26" />

      <path
   inkscape:connector-curvature="0"
   d="m 87.281,55.332 -0.48,0.281 0.039,0.437 c 0.133,-0.292 0.281,-0.531 0.441,-0.718 z m 10.36,-22.36 c 1.574,0.961 2.519,2.84 2.839,5.641 -1.707,-0.801 -3.265,-1.895 -4.679,-3.281 -0.879,-0.879 -2.016,-1.293 -3.403,-1.239 0,0.079 -0.226,0.864 -0.679,2.36 -0.481,1.547 -0.758,2.531 -0.84,2.957 -0.188,-0.344 -0.746,-1.117 -1.68,-2.317 -0.187,-0.242 -0.359,-0.496 -0.519,-0.761 0.347,1.121 0.574,2.492 0.679,4.121 0.055,2.773 0.121,4.211 0.2,4.316 0.695,0.188 1.16,0.496 1.402,0.922 0.16,0.293 0.238,0.695 0.238,1.199 0,1.629 -0.199,2.785 -0.597,3.481 -0.911,1.281 -1.856,2.812 -2.84,4.601 1.703,-1.175 3.144,-3.043 4.316,-5.601 0.75,-1.574 2.469,-2.36 5.16,-2.36 0.614,0 1.75,0.039 3.403,0.122 2.023,0.132 3.57,0.265 4.636,0.398 -1.437,-0.348 -2.89,-0.586 -4.355,-0.719 -1.309,-0.137 -3.43,-0.254 -6.363,-0.359 0,-0.055 -0.145,-0.137 -0.438,-0.242 -0.402,-0.161 -0.641,-0.254 -0.723,-0.282 l -0.32,-0.16 c 4.645,-0.531 7.016,-0.812 7.121,-0.84 1.52,-0.238 2.492,-0.636 2.922,-1.199 0.344,-0.48 0.492,-1.48 0.438,-3 -0.161,-3.89 -0.239,-6 -0.239,-6.32 0,-0.531 0.254,-3.824 0.758,-9.879 0,-1.625 -0.211,-3.148 -0.64,-4.559 -1.118,-2.054 -1.973,-3.64 -2.559,-4.761 l -0.16,-0.161 c -0.72,-0.851 -1.509,-1.585 -2.361,-2.199 -0.64,-0.453 -1.011,-0.679 -1.121,-0.679 h -0.476 c 0,0.05 -0.016,0.082 -0.043,0.082 l -0.239,0.359 1.161,6.84 c 0.105,-0.774 0.254,-1.481 0.437,-2.121 l 0.524,-0.199 c 0.613,-0.028 1.105,0.281 1.476,0.921 0.402,0.692 0.602,1.664 0.602,2.918 0,4.586 -0.227,7.465 -0.68,8.641 -0.934,2.348 -1.398,3.531 -1.398,3.559 0,-3.84 -0.161,-5.918 -0.481,-6.239 l -0.043,1 -0.359,-0.679 c 0.109,1.543 0.082,3.453 -0.078,5.718 z M 34,54.453 c -0.293,0 -0.559,-0.016 -0.801,-0.043 l 2,0.801 v -0.118 z m 22.48,-53.36 -3.921,1.68 c -0.907,0.399 -2.118,1 -3.637,1.797 0.344,0.773 0.586,1.363 0.719,1.762 l 0.597,0.48 c 1.231,1.094 2,1.946 2.321,2.559 0.347,0.64 0.519,1.586 0.519,2.84 L 53,13.894 52.762,13.851 C 51.988,13.187 51.398,12.265 51,11.093 50.762,10.32 50.305,8.734 49.641,6.332 l -0.879,-1 c 0.211,2.668 0.383,4.707 0.519,6.121 0.239,2.613 0.707,4.293 1.399,5.039 l 2.922,-0.121 c 1.703,-0.106 2.773,0.215 3.199,0.961 0.211,0.375 0.426,2.054 0.64,5.039 0.184,3.043 0.414,4.816 0.68,5.32 0.504,1.016 1.547,1.934 3.117,2.762 1.309,0.668 1.961,1.398 1.961,2.199 0,2.082 -0.933,4 -2.801,5.758 -1.945,1.441 -2.984,2.281 -3.117,2.523 0.106,0.028 0.813,0.094 2.117,0.2 1.309,0.292 2.149,0.867 2.524,1.718 l -0.082,0.602 c -1.492,2.535 -2.52,4 -3.078,4.398 1.093,0.082 1.824,0.227 2.199,0.442 0.586,-1.094 2.227,-2.36 4.918,-3.801 0.242,-0.238 0.695,-0.359 1.359,-0.359 1.469,0 2.453,0.066 2.961,0.199 0.399,0.105 1.215,0.402 2.442,0.879 0.718,0.027 1.597,0.109 2.636,0.242 1.043,0.133 1.828,0.281 2.364,0.441 1.73,0.078 3.371,0.332 4.918,0.758 l -0.52,-0.598 c -1.441,0 -3.785,-0.402 -7.039,-1.203 -3.281,-0.797 -5.629,-1.199 -7.039,-1.199 -0.535,-0.266 -0.867,-0.332 -1,-0.199 -0.484,0.48 -2.535,1.613 -6.16,3.398 0.105,-0.078 1.144,-1 3.117,-2.758 2.187,-1.867 3.949,-3.109 5.281,-3.722 0.348,-0.16 1.426,-0.465 3.239,-0.918 2,-0.481 3.121,-0.758 3.363,-0.84 0.133,-1.281 0.16,-2.387 0.078,-3.32 -0.133,-0.348 -1.067,-1.465 -2.801,-3.36 -1.625,-1.761 -2.558,-3.187 -2.801,-4.281 -0.05,-0.32 -0.25,-1.906 -0.597,-4.758 -0.559,-2.883 -1.442,-4.773 -2.641,-5.683 -0.719,0.507 -1.293,1.711 -1.719,3.601 -0.293,1.332 -0.468,2.696 -0.519,4.082 l -0.082,0.719 c -0.321,-0.242 -0.641,-0.895 -0.961,-1.961 -0.399,-1.254 -0.598,-2.547 -0.598,-3.879 0,-4.453 0.238,-6.973 0.719,-7.562 0.242,-0.289 0.625,-0.411 1.16,-0.356 0.348,0.051 0.984,0.117 1.918,0.199 1.148,0 1.719,-0.789 1.719,-2.359 0,-2.617 -0.614,-4.387 -1.84,-5.32 C 65.398,3.23 61.945,2.133 56.48,1.093 Z m 1.2,48.957 -0.321,-0.32 -0.199,0.602 c 0.133,-0.375 0.305,-0.465 0.52,-0.282 z M 78.879,4.133 v -0.04 l -4.481,-0.761 -0.117,2.84 c 0,1.546 0.067,2.613 0.199,3.199 0.161,0.668 0.801,2.508 1.918,5.519 0.243,-0.664 0.524,-1.144 0.84,-1.437 0.453,-0.403 1.082,-0.602 1.883,-0.602 1.625,0 2.465,1.215 2.52,3.641 0.453,-1.094 0.679,-1.949 0.679,-2.559 0,-1.629 -0.879,-3.109 -2.64,-4.441 -1.758,-1.332 -2.641,-2.281 -2.641,-2.84 0,-0.133 0.149,-0.426 0.441,-0.883 0.372,-0.586 0.84,-1.129 1.399,-1.636 z m 9.562,15.8 c -0.507,4.211 -0.933,7.039 -1.281,8.477 -0.215,0.828 -0.32,1.469 -0.32,1.922 l 0.16,1.64 0.48,-2.48 c 0.028,-0.106 0.188,-1.027 0.481,-2.762 0.32,-1.758 0.668,-2.785 1.039,-3.078 0.695,0.481 1.359,1.668 2,3.559 0.695,1.972 1.176,4.199 1.441,6.679 0.051,-0.05 0.559,-0.199 1.52,-0.437 0.934,-0.27 1.519,-0.414 1.762,-0.442 0.746,-3.359 0.238,-6.121 -1.524,-8.281 -0.637,-0.746 -1.558,-1.574 -2.758,-2.48 -1.976,-1.52 -2.976,-2.293 -3,-2.317 z m 1.758,-9.562 -0.121,-1 -0.359,1.883 z m -2.437,24 C 87.734,34.265 87.707,34.172 87.68,34.093 h -0.121 c 0.082,0.079 0.148,0.172 0.203,0.278 z m 9.199,5.722 c 0.133,-0.136 0.293,-0.203 0.48,-0.203 0.188,0 0.36,0.067 0.52,0.203 0.133,0.161 0.199,0.332 0.199,0.516 0,0.188 -0.066,0.348 -0.199,0.484 -0.16,0.161 -0.336,0.239 -0.52,0.239 -0.187,0 -0.347,-0.078 -0.48,-0.239 -0.16,-0.136 -0.242,-0.296 -0.242,-0.484 0,-0.184 0.082,-0.355 0.242,-0.516 z M 1,66.812 l 0.039,0.039 0.242,1.039 0.438,2.121 c 0,-2.187 0.226,-3.691 0.679,-4.519 L 2.359,65.41 c 0.028,-0.024 0.2,-0.039 0.52,-0.039 0.266,0 1.426,0.906 3.48,2.722 0.774,-0.695 1.188,-1.043 1.243,-1.043 1.386,0 2.265,0.586 2.636,1.762 0.215,1.387 0.457,2.332 0.723,2.84 L 11,70.531 C 11,68.16 8.559,65.093 3.68,61.332 L 3.238,60.851 c 0.696,0.321 3.403,1.707 8.121,4.16 l -0.32,-0.359 0.481,0.199 c 0.402,0.215 0.773,0.442 1.121,0.68 0.691,0 1.293,0.187 1.8,0.562 0.481,0.399 0.719,0.864 0.719,1.399 l -0.121,0.441 c 0.32,-0.347 0.949,-0.933 1.883,-1.761 0.824,-0.719 1.316,-1.2 1.476,-1.442 C 15.895,64.465 13.602,64.027 11.52,63.41 7.441,62.16 5.895,60.332 6.879,57.933 7.305,57.957 8.16,58.226 9.441,58.73 10.133,59 11,59.359 12.039,59.812 11.801,58.879 11.227,56.957 10.32,54.05 9.812,52.398 9.559,51.293 9.559,50.73 c 0,-0.586 0.187,-1.133 0.562,-1.637 0.106,-0.16 0.387,-0.468 0.84,-0.921 l -2.16,-2.641 c 0.961,-1.012 1.519,-1.906 1.679,-2.68 0.188,-0.773 0.426,-1.32 0.719,-1.64 l 0.403,0.16 c 0.343,1.254 0.933,2.64 1.757,4.16 0.453,0.828 0.68,2.293 0.68,4.398 l -0.16,4.204 0.281,-1.043 c 1.68,-2.614 2.602,-4.028 2.762,-4.239 1.117,-1.519 2.051,-2.281 2.797,-2.281 0.375,0 0.734,0.176 1.082,0.52 0.586,0.585 0.879,1.562 0.879,2.921 -0.801,5.68 -1.2,8.825 -1.2,9.442 l 0.282,-0.684 c 0.265,-0.769 0.957,-1.746 2.078,-2.918 1.039,-1.093 1.894,-1.785 2.558,-2.082 l 1.364,-0.84 0.078,-0.078 c 0.265,-0.293 0.453,-0.586 0.558,-0.879 0.801,0.426 1.563,0.786 2.282,1.078 -0.266,-0.187 -0.508,-0.398 -0.719,-0.64 -1.414,-1.36 -2.121,-3 -2.121,-4.918 l 0.082,-2.481 c 0.238,0.079 0.519,0.493 0.84,1.239 0.238,0.613 0.41,1.175 0.519,1.679 l 0.117,0.121 c -0.105,-0.347 -0.265,-0.945 -0.476,-1.8 -0.055,-0.106 -0.094,-0.211 -0.121,-0.321 -0.348,-0.879 -0.547,-1.863 -0.602,-2.957 -0.32,-1.441 -0.664,-2.32 -1.039,-2.64 -0.426,0.64 -0.68,1.211 -0.762,1.718 -0.023,0.668 -0.066,1.254 -0.117,1.762 -1.574,-0.562 -2.707,-1.226 -3.402,-2 -0.774,-0.883 -1.16,-2.066 -1.16,-3.558 0,-2.778 1.043,-5.176 3.121,-7.204 1.359,-1.359 2.508,-2.16 3.441,-2.398 0.106,0.051 0.211,0.078 0.321,0.078 0.078,0.055 0.117,0.242 0.117,0.563 0,0.027 0.426,0.48 1.281,1.359 0.879,1.117 1.332,2.414 1.359,3.879 0.028,0.535 0.133,2.187 0.321,4.961 l 0.242,-0.602 c 0.133,-1.57 0.266,-3.812 0.398,-6.718 0.106,-2.559 0.16,-4.106 0.16,-4.641 l -0.121,-2.719 c -2.078,-0.027 -3.464,-0.265 -4.16,-0.719 -0.398,-0.242 -0.597,-0.585 -0.597,-1.039 0,-2.214 0.464,-3.617 1.398,-4.203 0.426,-0.238 1.426,-0.386 3,-0.441 1.332,-0.024 2.254,-0.438 2.762,-1.238 0.718,-1.149 0.933,-3.321 0.636,-6.52 -1.277,0.559 -2.543,1.16 -3.796,1.801 -0.243,1.734 -0.403,3.039 -0.481,3.918 -0.082,0 -0.187,0.109 -0.32,0.32 -0.293,0.402 -0.453,0.613 -0.481,0.641 l -0.64,-3.68 c -0.453,0.32 -0.879,0.641 -1.282,0.957 -0.21,0.188 -0.89,0.844 -2.039,1.961 -1.226,1.176 -1.984,1.922 -2.281,2.242 0.027,0.184 -0.105,1.442 -0.398,3.758 -0.266,2.109 -0.453,3.508 -0.559,4.199 -0.32,-0.719 -0.668,-1.426 -1.043,-2.117 -0.183,-0.586 -0.277,-1.68 -0.277,-3.281 -0.774,0.933 -1.84,2.281 -3.199,4.039 l -0.961,1.32 v 0.242 c -0.106,1.414 -0.161,2.371 -0.161,2.879 0.188,0.481 0.387,1.016 0.598,1.602 0.375,1.144 0.563,2.16 0.563,3.039 0,4.402 -0.055,6.867 -0.161,7.402 -0.453,2.239 -0.695,3.41 -0.718,3.52 C 16.785,41.172 16.586,38.8 16.16,38.293 15.895,38 15.305,37.718 14.398,37.453 c -1.41,-0.375 -2.519,-0.735 -3.32,-1.082 -0.051,0 -0.09,-0.012 -0.117,-0.039 L 9.879,39.05 c -0.32,0.989 -0.852,2.387 -1.598,4.204 -0.855,2.078 -1.562,3.625 -2.121,4.636 -0.265,0.43 -0.492,0.84 -0.68,1.243 1.04,1.812 1.614,2.8 1.719,2.96 0.508,1.118 0.867,2.411 1.082,3.879 C 4.973,54.398 2.945,53.625 2.199,53.652 1.906,53.972 1.492,55.133 0.961,57.133 0.32,59.476 0,61.531 0,63.293 c 0,0.8 0.16,1.597 0.48,2.398 0.321,0.668 0.493,1.039 0.52,1.121 z m 11.359,4.961 0.719,-0.84 -0.117,-1.203 c -0.242,0.668 -0.441,1.348 -0.602,2.043 z M 41.879,26.41 c -0.078,-0.238 -0.32,-0.785 -0.719,-1.637 -0.398,-0.855 -0.652,-1.48 -0.762,-1.883 -1.359,-2.773 -2.039,-4.211 -2.039,-4.32 0,-0.691 0.055,-1.785 0.161,-3.277 0.105,-1.84 0.226,-2.95 0.359,-3.321 l 0.043,-0.039 c 0.504,-0.695 1.316,-1.535 2.437,-2.523 1.067,-0.93 2.149,-1.746 3.243,-2.438 L 45.121,6.57 45.199,6.492 c -0.824,0.398 -2.371,1.027 -4.64,1.879 l -1.719,0.64 c -0.695,1.575 -1.32,2.829 -1.879,3.762 l -0.52,0.637 c 0.106,-1.813 0.094,-2.985 -0.043,-3.516 l -0.32,0.117 c -0.105,1.387 -0.156,2.481 -0.156,3.282 0.824,2.961 1.238,5.05 1.238,6.281 0,0.266 -0.105,1.293 -0.32,3.078 -0.238,1.816 -0.36,2.856 -0.36,3.121 0,0.906 0.547,2.399 1.641,4.481 1.094,2.078 1.641,4.144 1.641,6.199 0,0.668 -0.149,1.812 -0.442,3.441 -0.293,1.731 -0.441,2.637 -0.441,2.719 l 0.922,-0.16 c 0.879,-2.508 1.32,-5.067 1.32,-7.68 0,-0.883 -0.48,-1.961 -1.441,-3.242 -0.985,-1.305 -1.481,-3.133 -1.481,-5.481 0,-0.531 0.055,-1.386 0.16,-2.558 0.907,1.918 2.243,4.332 4,7.238 0.829,1.363 1.243,2.707 1.243,4.043 0,1.094 -0.122,2.184 -0.364,3.281 -0.398,1.973 -1.117,3.383 -2.16,4.239 1.977,-0.188 4.176,-0.2 6.602,-0.039 h 0.121 c 1.758,-0.481 3.121,-0.723 4.078,-0.723 l 0.16,-0.078 c 0.188,-0.133 0.387,-0.254 0.602,-0.36 0.16,-0.109 0.238,-0.335 0.238,-0.683 0,-1.223 -0.504,-2.238 -1.52,-3.039 -0.187,-0.133 -1.32,-0.774 -3.398,-1.918 -3.496,-1.895 -5.52,-4.906 -6.082,-9.043 z"
   style="fill:#898074;fill-rule:evenodd"
   id="path28" />

    </g>

  </g>
  </g>
</svg>
