<?xml version="1.0" encoding="UTF-8" standalone="no"?>
<svg
   xmlns:dc="http://purl.org/dc/elements/1.1/"
   xmlns:cc="http://creativecommons.org/ns#"
   xmlns:rdf="http://www.w3.org/1999/02/22-rdf-syntax-ns#"
   xmlns:svg="http://www.w3.org/2000/svg"
   xmlns="http://www.w3.org/2000/svg"
   xmlns:sodipodi="http://sodipodi.sourceforge.net/DTD/sodipodi-0.dtd"
   xmlns:inkscape="http://www.inkscape.org/namespaces/inkscape"
   viewBox="0 0 106 106"
   width="212"
   height="212"
   version="1.1"
   id="svg12"
   sodipodi:docname="icons8-menu.svg"
   inkscape:version="0.92.4 (5da689c313, 2019-01-14)">
  <metadata
     id="metadata18">
    <rdf:RDF>
      <cc:Work
         rdf:about="">
        <dc:format>image/svg+xml</dc:format>
        <dc:type
           rdf:resource="http://purl.org/dc/dcmitype/StillImage" />
        <dc:title></dc:title>
      </cc:Work>
    </rdf:RDF>
  </metadata>
  <defs
     id="defs16" />
  <sodipodi:namedview
     pagecolor="#ffffff"
     bordercolor="#666666"
     borderopacity="1"
     objecttolerance="10"
     gridtolerance="10"
     guidetolerance="10"
     inkscape:pageopacity="0"
     inkscape:pageshadow="2"
     inkscape:window-width="1920"
     inkscape:window-height="1017"
     id="namedview14"
     showgrid="false"
     inkscape:pagecheckerboard="true"
     inkscape:zoom="2.6074563"
     inkscape:cx="75.162444"
     inkscape:cy="76.670993"
     inkscape:window-x="-8"
     inkscape:window-y="-8"
     inkscape:window-maximized="1"
     inkscape:current-layer="svg12"
     fit-margin-top="0"
     fit-margin-left="0"
     fit-margin-right="0"
     fit-margin-bottom="0" />
  <path
     d="M 53,106 C 23.8,106 0,82.2 0,53 0,23.8 23.8,0 53,0 c 29.2,0 53,23.8 53,53 0,29.2 -23.8,53 -53,53 z M 53,6 C 27.1,6 6,27.1 6,53 6,78.9 27.1,100 53,100 78.9,100 100,78.9 100,53 100,27.1 78.9,6 53,6 Z"
     id="path4"
     style="fill:#ffffff;fill-opacity:1"
     inkscape:connector-curvature="0" />
  <path
     d="m 75.5,41 h -45 c -1.7,0 -3,-1.3 -3,-3 0,-1.7 1.3,-3 3,-3 h 45 c 1.7,0 3,1.3 3,3 0,1.7 -1.3,3 -3,3 z m 0,15 h -45 c -1.7,0 -3,-1.3 -3,-3 0,-1.7 1.3,-3 3,-3 h 45 c 1.7,0 3,1.3 3,3 0,1.7 -1.3,3 -3,3 z"
     id="path6"
     style="fill:#ffffff;fill-opacity:1"
     inkscape:connector-curvature="0" />
  <g
     id="g10"
     style="fill:#ffffff;fill-opacity:1"
     transform="translate(-11,-11)">
    <path
       d="m 86.5,82 h -45 c -1.7,0 -3,-1.3 -3,-3 0,-1.7 1.3,-3 3,-3 h 45 c 1.7,0 3,1.3 3,3 0,1.7 -1.3,3 -3,3 z"
       id="path8"
       style="fill:#ffffff;fill-opacity:1"
       inkscape:connector-curvature="0" />
  </g>
</svg>
